#define im_width 128
#define im_height 53
static char im_bits[] = {
0x00,0x00,0x00,0x00,0x00,0x00,0x00,0x00,0x00,0x00,0x00,0x00,0x00,0x00,0x00,
0x00,0x00,0x00,0x00,0x00,0x00,0x00,0x00,0x00,0x00,0x00,0x00,0x00,0x00,0x00,
0x00,0x00,0x00,0x00,0x00,0x00,0x00,0x00,0x00,0x00,0x00,0x00,0x00,0x00,0x00,
0x00,0x00,0x00,0x00,0x00,0xf8,0x81,0x1f,0x00,0x00,0x00,0x00,0x00,0x00,0x00,
0x00,0x00,0x00,0x00,0x00,0x0e,0xfc,0xc3,0x3f,0x00,0x00,0x00,0x00,0x00,0x00,
0x00,0x00,0x00,0x00,0x00,0x80,0x3f,0xfe,0xe7,0x7f,0x00,0x00,0x00,0x00,0x00,
0x00,0x00,0x00,0x00,0x00,0x00,0x80,0x3f,0xfe,0xe7,0x7f,0x00,0x00,0x00,0x00,
0x00,0x00,0x00,0x00,0x00,0x00,0x00,0xc0,0x7f,0xfe,0xe7,0x7f,0x00,0x00,0x00,
0x00,0x00,0x00,0x00,0x00,0x00,0x00,0x00,0xc0,0x7f,0xfe,0xe7,0x7f,0x00,0x00,
0x00,0x00,0x00,0x00,0x00,0x00,0x00,0x00,0x00,0xc0,0x7f,0xfe,0xe7,0x7f,0x00,
0x00,0x00,0x00,0x00,0x00,0x00,0x00,0x00,0x00,0x00,0x80,0x3f,0xfe,0xe7,0x7f,
0x00,0x80,0x64,0x03,0x1b,0x03,0x00,0x00,0x00,0x00,0x00,0x80,0x3f,0xfc,0xc3,
0x3f,0x00,0x80,0x12,0x85,0xa8,0x04,0x00,0x00,0x00,0x00,0x00,0x00,0x0e,0xf8,
0x81,0x1f,0x00,0x80,0x22,0x33,0x99,0x04,0x00,0x00,0x00,0x00,0x00,0x00,0x00,
0x00,0x00,0x00,0x00,0x80,0x46,0x01,0x8a,0x04,0x00,0x00,0x00,0x00,0x00,0x00,
0x00,0x00,0x00,0x00,0x00,0x80,0x32,0x81,0x09,0x03,0x00,0x00,0x00,0x00,0x00,
0x80,0x1f,0xf8,0x01,0x00,0x00,0x00,0x00,0x00,0x00,0x00,0x00,0x00,0x00,0x00,
0x00,0xc0,0x3f,0xfc,0x03,0x00,0x00,0x00,0x00,0x00,0x00,0x00,0x00,0x00,0x00,
0x00,0x00,0xe0,0x7f,0xfe,0x07,0x00,0x00,0x00,0x00,0x00,0x00,0x00,0x00,0x00,
0x00,0x00,0x00,0xe0,0x7f,0xfe,0x07,0x00,0x00,0x00,0x00,0x00,0x00,0x00,0x00,
0x00,0x00,0x00,0x00,0xe0,0x7f,0xfe,0x07,0x00,0x00,0x00,0x00,0x00,0x00,0x00,
0x00,0x00,0x00,0x00,0x00,0xe0,0x7f,0xfe,0x07,0x00,0x00,0x00,0x00,0x00,0x00,
0x00,0x00,0x00,0x00,0x00,0x00,0xe0,0x7f,0xfe,0x07,0x00,0x00,0x00,0x00,0x00,
0x00,0x00,0x00,0x00,0x00,0x00,0x00,0xe0,0x7f,0xfe,0x07,0x00,0x00,0x00,0x00,
0x00,0x00,0x00,0x00,0x00,0x00,0x00,0x00,0xc0,0x3f,0xfc,0x03,0x00,0x00,0x00,
0x00,0x00,0x00,0x00,0x00,0x00,0x00,0x00,0x00,0x80,0x1f,0xf8,0x01,0x00,0x00,
0x00,0x00,0x00,0x00,0x00,0x00,0x00,0x00,0x00,0x00,0x00,0x00,0x00,0x00,0x00,
0x00,0x00,0x00,0x00,0x00,0x00,0x00,0x00,0x00,0x00,0x00,0x00,0x00,0x00,0x00,
0x00,0x00,0x00,0x00,0x00,0x00,0x00,0x00,0x00,0x00,0x00,0x00,0x80,0x1f,0xf8,
0x81,0x1f,0x00,0x00,0x00,0x00,0x00,0x00,0x00,0x00,0x00,0x00,0x00,0xc0,0x3f,
0xfc,0xc3,0x3f,0x00,0x00,0x00,0x00,0x00,0x00,0x00,0x00,0x00,0x00,0x00,0xe0,
0x7f,0xfe,0xe7,0x7f,0x00,0x00,0x00,0x00,0x00,0x00,0x00,0x00,0x00,0x00,0x00,
0xe0,0x7f,0xfe,0xe7,0x7f,0x00,0x80,0x03,0x00,0x38,0x00,0x00,0x00,0x00,0x00,
0x00,0xe0,0x7f,0xfe,0xe7,0x7f,0x00,0x40,0x00,0x00,0x84,0x4c,0x00,0x00,0x00,
0x00,0x00,0xe0,0x7f,0xfe,0xe7,0x7f,0x00,0x40,0x08,0x0e,0x84,0xd2,0xcc,0x94,
0xec,0x00,0x00,0xe0,0x7f,0xfe,0xe7,0x7f,0x00,0xc0,0x39,0x09,0x9c,0x4e,0x22,
0x2d,0x02,0x01,0x00,0xe0,0x7f,0xfe,0xe7,0x7f,0x00,0x40,0x48,0x09,0x84,0x42,
0x22,0xa5,0x22,0x01,0x00,0xc0,0x3f,0xfc,0xc3,0x3f,0x00,0x80,0x4b,0x2e,0xb8,
0x8c,0xc2,0xa4,0xcc,0x00,0x00,0x80,0x1f,0xf8,0x81,0x1f,0x00,0x00,0x00,0x08,
0x00,0x00,0x00,0x00,0x00,0x00,0x00,0x00,0x00,0x00,0x00,0x00,0x00,0x00,0x00,
0x08,0x00,0x00,0x00,0x00,0x00,0x00,0x00,0x00,0x00,0x00,0x00,0x00,0x00,0x00,
0x00,0x08,0x00,0x00,0x00,0x00,0x00,0x00,0x00,0x80,0x1f,0xf8,0x01,0x00,0x00,
0x00,0x00,0x04,0x00,0x00,0x00,0x00,0x00,0x00,0x00,0xc0,0x3f,0xfc,0x03,0x00,
0x00,0x00,0x00,0x00,0x04,0x7c,0x3c,0x7c,0x00,0x00,0x00,0xe0,0x7f,0xfe,0x07,
0x00,0x00,0x00,0x00,0x00,0x04,0x82,0x42,0x82,0x00,0x00,0x00,0xe0,0x7f,0xfe,
0x07,0x00,0x00,0x00,0x00,0x00,0x04,0x82,0x42,0x82,0x00,0x00,0x00,0xe0,0x7f,
0xfe,0x07,0x00,0x00,0x00,0x00,0x00,0x04,0x82,0x42,0x82,0x00,0x00,0x00,0xe0,
0x7f,0xfe,0x07,0x00,0x00,0x00,0x00,0x00,0x04,0x82,0x3e,0x82,0x00,0x00,0x00,
0xe0,0x7f,0xfe,0x07,0x00,0x00,0x00,0x00,0x00,0x04,0x82,0x0a,0xfe,0x00,0x00,
0x00,0xe0,0x7f,0xfe,0x07,0x00,0x00,0x00,0x00,0x00,0x04,0x82,0x12,0x82,0x00,
0x00,0x00,0xc0,0x3f,0xfc,0x03,0x00,0x00,0x00,0x00,0x00,0x04,0x82,0x22,0x82,
0x00,0x00,0x00,0x80,0x1f,0xf8,0x01,0x00,0x00,0x00,0x00,0x00,0x04,0x82,0x42,
0x82,0x00,0x00,0x00,0x00,0x00,0x00,0x00,0x00,0x00,0x00,0x00,0x00,0xf8,0x7c,
0x82,0x82,0x00,0x00,0x00,0x00,0x00,0x00,0x00,0x00,0x00,0x00,0x00,0x00,0x00,
0x00,0x00,0x00,0x00,0x00,0x00,0x00,0x00,0x00,0x00,0x00,0x00,0x00,0x00,0x00,
0x00,0x00,0x00,0x00,0x00,0x00,0x00,0x00,0x00,0x00,0x00,0x00,0x00,0x00,0x00,
0x00,0x00,0x00,0x00,0x00,0x00,0x00,0x00
};
